<svg width="978" height="1007" viewBox="0 0 978 1007" fill="none" xmlns="http://www.w3.org/2000/svg">
<path d="M975.883 1.5V1022.5H16.2822C17.361 1020.97 18.935 1018.72 20.9307 1015.84C24.9462 1010.06 30.6698 1001.71 37.5049 991.474C51.1743 971.006 69.2945 942.98 87.0908 912.761C104.883 882.548 122.371 850.109 134.763 820.818C140.958 806.173 145.892 792.285 148.95 779.836C151.908 767.795 153.136 757.001 151.985 748.131L151.866 747.278C140.8 673.083 99.0302 623.504 62.4873 573.791C26.1978 524.423 -5.04046 474.841 2.68359 400.429L2.87305 398.666C6.98405 361.792 14.6044 336.289 24.4551 316.882C34.3001 297.486 46.4168 284.09 59.668 271.461C85.809 246.547 116.399 224.623 141.572 165.902L142.767 163.078C154.085 135.959 154.042 95.0006 151.251 61.0645C149.852 44.0494 147.752 28.7145 146.004 17.6338C145.13 12.0926 144.342 7.61252 143.773 4.5166C143.547 3.28568 143.355 2.27347 143.206 1.5H975.883Z" fill="#2B3718" fill-opacity="0.8" stroke="#2B3718" stroke-width="3"/>
</svg>
